<svg width="114" height="40" viewBox="0 0 114 40" fill="none" xmlns="http://www.w3.org/2000/svg">
<path d="M14.3717 0.884295L8.09812 7.15787L15.2995 14.3592L22.5008 7.15787L16.2272 0.884296C15.7148 0.371902 14.8841 0.371901 14.3717 0.884295Z" fill="url(#paint0_linear)"/>
<path d="M0.384296 14.8717C-0.128098 15.3841 -0.128099 16.2149 0.384295 16.7273L6.65787 23.0008L13.8592 15.7995L6.65787 8.59814L0.384296 14.8717Z" fill="url(#paint1_linear)"/>
<path d="M23.9411 25.8814L16.7398 33.0827L23.0134 39.3563C23.5258 39.8687 24.3565 39.8687 24.8689 39.3563L31.1425 33.0827L23.9411 25.8814Z" fill="url(#paint2_linear)"/>
<path d="M8.09812 24.4411L15.2995 17.2398L22.5008 24.4411L15.2995 31.6424L8.09812 24.4411Z" fill="url(#paint3_linear)"/>
<path d="M25.3814 24.4411L32.5827 17.2398L39.7841 24.4411L32.5827 31.6424L25.3814 24.4411Z" fill="url(#paint4_linear)"/>
<path d="M23.9411 8.59814L16.7398 15.7995L23.9411 23.0008L31.1425 15.7995L23.9411 8.59814Z" fill="url(#paint5_linear)"/>
<path d="M34.023 15.7995L41.2243 8.59814L47.4979 14.8717C48.0103 15.3841 48.0103 16.2149 47.4979 16.7273L41.2243 23.0008L34.023 15.7995Z" fill="url(#paint6_linear)"/>
<path d="M31.655 0.884295L25.3814 7.15787L32.5827 14.3592L39.7841 7.15787L33.5105 0.884296C32.9981 0.371902 32.1674 0.371901 31.655 0.884295Z" fill="url(#paint7_linear)"/>
<path fill-rule="evenodd" clip-rule="evenodd" d="M85.2786 6.79067V0.5L81.347 0.609213V1.81056L83.0944 2.24741V16.9912L83.5749 17.1441C84.0263 17.2897 84.5433 17.3843 85.1257 17.428C85.7228 17.4863 86.3926 17.5227 87.1353 17.5372C88.1109 17.5372 88.97 17.3843 89.7127 17.0785C90.4553 16.7727 91.0815 16.3432 91.5912 15.7898C92.1008 15.2365 92.4867 14.5812 92.7488 13.824C93.0109 13.0522 93.142 12.2149 93.142 11.3121C93.142 9.46275 92.7634 8.0357 92.0062 7.03094C91.249 6.02618 90.0986 5.5238 88.555 5.5238C87.4338 5.5238 86.3416 5.94609 85.2786 6.79067ZM87.5503 15.7898C86.3853 15.7898 85.6281 15.717 85.2786 15.5714V8.69098C85.5553 8.31237 85.9121 7.98473 86.3489 7.70806C86.8003 7.41682 87.3901 7.27121 88.1182 7.27121C89.0501 7.27121 89.7345 7.64253 90.1714 8.38518C90.6228 9.11327 90.8485 10.1326 90.8485 11.4431C90.8485 12.0693 90.783 12.6518 90.6519 13.1906C90.5354 13.7148 90.3388 14.1735 90.0622 14.5666C89.8001 14.9452 89.4579 15.2438 89.0356 15.4622C88.6278 15.6806 88.1327 15.7898 87.5503 15.7898ZM53.8082 17.3188V16.0082L55.6648 15.5714V3.77639L53.8082 3.33954V2.13819L57.9583 2.02898H60.361C61.9046 2.02898 63.1059 2.37846 63.965 3.07743C64.8387 3.77639 65.2756 4.73746 65.2756 5.96065C65.2756 8.10123 64.3291 9.521 62.4361 10.22C62.7855 10.5258 63.2224 11.181 63.7466 12.1858L65.4722 15.6588L67.023 16.0082V17.3188H63.7466L61.89 13.2779C61.3803 12.1858 60.9362 11.4795 60.5576 11.1592C60.1935 10.8243 59.6548 10.6568 58.9412 10.6568H57.9583V15.5714L59.8149 16.0082V17.3188H53.8082ZM57.9583 3.77639V9.01862H59.5965C60.6595 9.01862 61.4895 8.77835 62.0866 8.29781C62.6836 7.81727 62.9821 7.18384 62.9821 6.3975C62.9821 5.59661 62.7273 4.963<svg width="114" height="40" viewBox="0 0 114 40" fill="none" xmlns="http://www.w3.org/2000/svg">
<path d="M14.3717 0.884295L8.09812 7.15787L15.2995 14.3592L22.5008 7.15787L16.2272 0.884296C15.7148 0.371902 14.8841 0.371901 14.3717 0.884295Z" fill="url(#paint0_linear)"/>
<path d="M0.384296 14.8717C-0.128098 15.3841 -0.128099 16.2149 0.384295 16.7273L6.65787 23.0008L13.8592 15.7995L6.65787 8.59814L0.384296 14.8717Z" fill="url(#paint1_linear)"/>
<path d="M23.9411 25.8814L16.7398 33.0827L23.0134 39.3563C23.5258 39.8687 24.3565 39.8687 24.8689 39.3563L31.1425 33.0827L23.9411 25.8814Z" fill="url(#paint2_linear)"/>
<path d="M8.09812 24.4411L15.2995 17.2398L22.5008 24.4411L15.2995 31.6424L8.09812 24.4411Z" fill="url(#paint3_linear)"/>
<path d="M25.3814 24.4411L32.5827 17.2398L39.7841 24.4411L32.5827 31.6424L25.3814 24.4411Z" fill="url(#paint4_linear)"/>
<path d="M23.9411 8.59814L16.7398 15.7995L23.9411 23.0008L31.1425 15.7995L23.9411 8.59814Z" fill="url(#paint5_linear)"/>
<path d="M34.023 15.7995L41.2243 8.59814L47.4979 14.8717C48.0103 15.3841 48.0103 16.2149 47.4979 16.7273L41.2243 23.0008L34.023 15.7995Z" fill="url(#paint6_linear)"/>
<path d="M31.655 0.884295L25.3814 7.15787L32.5827 14.3592L39.7841 7.15787L33.5105 0.884296C32.9981 0.371902 32.1674 0.371901 31.655 0.884295Z" fill="url(#paint7_linear)"/>
<path fill-rule="evenodd" clip-rule="evenodd" d="M85.2786 6.79067V0.5L81.347 0.609213V1.81056L83.0944 2.24741V16.9912L83.5749 17.1441C84.0263 17.2897 84.5433 17.3843 85.1257 17.428C85.7228 17.4863 86.3926 17.5227 87.1353 17.5372C88.1109 17.5372 88.97 17.3843 89.7127 17.0785C90.4553 16.7727 91.0815 16.3432 91.5912 15.7898C92.1008 15.2365 92.4867 14.5812 92.7488 13.824C93.0109 13.0522 93.142 12.2149 93.142 11.3121C93.142 9.46275 92.7634 8.0357 92.0062 7.03094C91.249 6.02618 90.0986 5.5238 88.555 5.5238C87.4338 5.5238 86.3416 5.94609 85.2786 6.79067ZM87.5503 15.7898C86.3853 15.7898 85.6281 15.717 85.2786 15.5714V8.69098C85.5553 8.31237 85.9121 7.98473 86.3489 7.70806C86.8003 7.41682 87.3901 7.27121 88.1182 7.27121C89.0501 7.27121 89.7345 7.64253 90.1714 8.38518C90.6228 9.11327 90.8485 10.1326 90.8485 11.4431C90.8485 12.0693 90.783 12.6518 90.6519 13.1906C90.5354 13.7148 90.3388 14.1735 90.0622 14.5666C89.8001 14.9452 89.4579 15.2438 89.0356 15.4622C88.6278 15.6806 88.1327 15.7898 87.5503 15.7898ZM53.8082 17.3188V16.0082L55.6648 15.5714V3.77639L53.8082 3.33954V2.13819L57.9583 2.02898H60.361C61.9046 2.02898 63.1059 2.37846 63.965 3.07743C64.8387 3.77639 65.2756 4.73746 65.2756 5.96065C65.2756 8.10123 64.3291 9.521 62.4361 10.22C62.7855 10.5258 63.2224 11.181 63.7466 12.1858L65.4722 15.6588L67.023 16.0082V17.3188H63.7466L61.89 13.2779C61.3803 12.1858 60.9362 11.4795 60.5576 11.1592C60.1935 10.8243 59.6548 10.6568 58.9412 10.6568H57.9583V15.5714L59.8149 16.0082V17.3188H53.8082ZM57.9583 3.77639V9.01862H59.5965C60.6595 9.01862 61.4895 8.77835 62.0866 8.29781C62.6836 7.81727 62.9821 7.18384 62.9821 6.3975C62.9821 5.59661 62.7273 4.96317 62.2176 4.4972C61.708 4.01666 61.0527 3.77639 60.2518 3.77639H57.9583ZM78.9358 15.5714L80.7924 16.0082V17.2096L77.1883 17.3188L76.9699 15.7898C76.3583 16.3286 75.6666 16.7582 74.8949 17.0785C74.1231 17.3843 73.4678 17.5372 72.929 17.5372C71.7641 17.5372 70.8904 17.195 70.3079 16.5106C69.7255 15.8262 69.4342 14.8652 69.4342 13.6274V7.48963L67.5776 7.05278V5.85144L71.6185 5.74223V13.409C71.6185 14.1808 71.7714 14.7559 72.0772 15.1345C72.383 15.4986 72.8489 15.6806 73.4751 15.6806C74.1013 15.6806 74.6764 15.535 75.2007 15.2438C75.7249 14.9525 76.1108 14.6686 76.3583 14.3919L76.7515 13.955V7.48963L74.8949 7.05278V5.85144L78.9358 5.74223V15.5714ZM97.8373 0.609213C98.7838 0.609213 99.257 1.15528 99.257 2.24741C99.257 2.69882 99.0969 3.0483 98.7765 3.29585C98.4562 3.5434 98.114 3.66718 97.7499 3.66718C97.3567 3.66718 97.0364 3.53612 96.7888 3.27401C96.5413 2.99734 96.4175 2.61873 96.4175 2.13819C96.4175 1.65766 96.5486 1.28633 96.8107 1.02422C97.0874 0.747549 97.4296 0.609213 97.8373 0.609213ZM99.0386 15.5714L100.677 16.1175V17.3188H94.9977V16.1175L96.8544 15.5714V7.48963L94.9977 7.05278V5.85144L99.0386 5.74223V15.5714ZM106.027 10.1107V0.5L101.987 0.609213V1.81056L103.843 2.24741V15.5714L101.987 16.1175V17.3188H107.447V16.1175L106.027 15.5714V11.7489H107.928L111.051 17.3188H114V16.1175L112.362 15.5714H112.34L109.522 10.6568L111.772 7.31489H111.794L113.345 7.05278V5.74223L108.539 5.85144V7.05278L109.522 7.35858L107.884 10.1107H106.027ZM59.2047 37.1761V21.8384L61.619 21.2703V19.5661L53.8081 19.7081V21.2703L56.2224 21.8384V37.1761L53.8081 37.7442V39.4484H67.5837V33.9098H65.5955L65.0274 37.1761H59.2047ZM69.5229 28.854C69.1821 29.8386 69.0116 30.9369 69.0116 32.1488C69.0116 34.6293 69.5986 36.5134 70.7726 37.801C71.9656 39.0886 73.6414 39.7324 75.8 39.7324C76.8794 39.7324 77.8545 39.5336 78.7256 39.136C79.6155 38.7383 80.3635 38.1892 80.9694 37.4886C81.5943 36.769 82.0772 35.9264 82.418 34.9607C82.7588 33.976 82.9293 32.8967 82.9293 31.7227C82.9293 29.3368 82.3423 27.4717 81.1683 26.1273C79.9943 24.7828 78.3469 24.1106 76.2261 24.1106C75.1657 24.1106 74.1905 24.3 73.3005 24.6787C72.4295 25.0574 71.6721 25.5971 71.0283 26.2977C70.3845 26.9983 69.8827 27.8504 69.5229 28.854ZM71.994 31.9215C71.994 28.2291 73.3668 26.3829 76.1125 26.3829C78.6688 26.3829 79.9469 28.1818 79.9469 31.7795C79.9469 33.6731 79.625 35.0932 78.9812 36.04C78.3563 36.9868 77.3527 37.4602 75.9705 37.4602C73.3195 37.4602 71.994 35.614 71.994 31.9215ZM90.607 24.3947V26.0989L88.6188 26.3829L91.9988 36.8921L95.4072 26.5249L93.4474 26.0989V24.5367L99.8097 24.3947V26.0989L98.2475 26.3829L93.419 39.4484H90.2946L85.6365 26.5249L84.2163 26.0989V24.5367L90.607 24.3947ZM104.059 32.3476L113.858 32.2908L114 30.7854C114 26.3355 112.012 24.1106 108.035 24.1106C107.013 24.1106 106.075 24.3094 105.223 24.7071C104.371 25.1047 103.633 25.6633 103.008 26.3829C102.402 27.0835 101.928 27.9261 101.588 28.9108C101.247 29.8954 101.076 30.9748 101.076 32.1488C101.076 34.4968 101.654 36.3525 102.809 37.7158C103.964 39.0602 105.659 39.7324 107.893 39.7324C108.745 39.7324 109.531 39.6188 110.251 39.3916C110.989 39.1454 111.623 38.8803 112.154 38.5963C112.703 38.2933 113.299 37.8862 113.943 37.375L112.949 35.898L112.381 36.2672C112.173 36.3998 111.917 36.5418 111.614 36.6933C111.311 36.8258 110.97 36.9489 110.591 37.0625C110.232 37.1761 109.843 37.2708 109.427 37.3466C109.01 37.4223 108.594 37.4602 108.177 37.4602C106.927 37.4602 105.924 36.9963 105.166 36.0684C104.428 35.1406 104.059 33.9003 104.059 32.3476ZM110.989 30.2173H104.172C104.267 29.0812 104.636 28.1534 105.28 27.4338C105.924 26.6953 106.785 26.3261 107.865 26.3261C108.963 26.3261 109.758 26.6859 110.251 27.4054C110.743 28.125 110.989 29.0623 110.989 30.2173Z" fill="url(#paint8_linear)"/>
<defs>
<linearGradient id="paint0_linear" x1="23.9411" y1="0.5" x2="23.9411" y2="39.7406" gradientUnits="userSpaceOnUse">
<stop stop-color="#FF33AD"/>
<stop offset="1" stop-color="#27D8FF"/>
</linearGradient>
<linearGradient id="paint1_linear" x1="23.9411" y1="0.5" x2="23.9411" y2="39.7406" gradientUnits="userSpaceOnUse">
<stop stop-color="#FF33AD"/>
<stop offset="1" stop-color="#27D8FF"/>
</linearGradient>
<linearGradient id="paint2_linear" x1="23.9411" y1="0.5" x2="23.9411" y2="39.7406" gradientUnits="userSpaceOnUse">
<stop stop-color="#FF33AD"/>
<stop offset="1" stop-color="#27D8FF"/>
</linearGradient>
<linearGradient id="paint3_linear" x1="23.9411" y1="0.5" x2="23.9411" y2="39.7406" gradientUnits="userSpaceOnUse">
<stop stop-color="#FF33AD"/>
<stop offset="1" stop-color="#27D8FF"/>
</linearGradient>
<linearGradient id="paint4_linear" x1="23.9411" y1="0.5" x2="23.9411" y2="39.7406" gradientUnits="userSpaceOnUse">
<stop stop-color="#FF33AD"/>
<stop offset="1" stop-color="#27D8FF"/>
</linearGradient>
<linearGradient id="paint5_linear" x1="23.9411" y1="0.5" x2="23.9411" y2="39.7406" gradientUnits="userSpaceOnUse">
<stop stop-color="#FF33AD"/>
<stop offset="1" stop-color="#27D8FF"/>
</linearGradient>
<linearGradient id="paint6_linear" x1="23.9411" y1="0.5" x2="23.9411" y2="39.7406" gradientUnits="userSpaceOnUse">
<stop stop-color="#FF33AD"/>
<stop offset="1" stop-color="#27D8FF"/>
</linearGradient>
<linearGradient id="paint7_linear" x1="23.9411" y1="0.5" x2="23.9411" y2="39.7406" gradientUnits="userSpaceOnUse">
<stop stop-color="#FF33AD"/>
<stop offset="1" stop-color="#27D8FF"/>
</linearGradient>
<linearGradient id="paint8_linear" x1="83.904" y1="0.5" x2="83.904" y2="39.7324" gradientUnits="userSpaceOnUse">
<stop stop-color="#27D8FF"/>
<stop offset="1" stop-color="#FF33AD"/>
</linearGradient>
</defs>
</svg>
